<?xml version="1.0" encoding="UTF-8"?>
<svg version="1.1" xmlns="http://www.w3.org/2000/svg" width="900" height="900">
<path d="M0 0 C297 0 594 0 900 0 C900 297 900 594 900 900 C603 900 306 900 0 900 C0 603 0 306 0 0 Z " fill="#281F58" transform="translate(0,0)"/>
<path d="M0 0 C1.47339844 0.30744141 1.47339844 0.30744141 2.9765625 0.62109375 C23.78318097 5.56189843 44.2093707 17.78259982 57.08984375 34.77734375 C58.88013602 37.24525623 58.88013602 37.24525623 62 38 C63.34253176 37.70589568 64.67609328 37.36899848 66 37 C74.64982432 36.13997923 81.68392333 38.08281615 88.75 43.125 C93.2022692 46.81712568 95.72147914 50.7281282 98 56 C98.31839844 56.69867188 98.63679688 57.39734375 98.96484375 58.1171875 C102.77030609 67.69222178 101.82972947 77.78378091 98.26171875 87.2734375 C94.98941889 94.34484711 90.59893036 98.93911978 84 103 C83.34 103 82.68 103 82 103 C82.05800781 103.680625 82.11601563 104.36125 82.17578125 105.0625 C82.8991765 120.60516359 76.82512152 134.40787994 66.8125 146.0625 C63.55657679 149.57648121 60.13171684 152.59422991 56.375 155.5625 C49.59686467 160.94317966 44.28007171 166.49480228 42 175 C39.82915733 195.16864294 49.4952964 213.52410646 57.8671875 231.2109375 C58.38756592 232.31120522 58.38756592 232.31120522 58.91845703 233.43370056 C60.66314711 237.11769345 62.41732333 240.79667237 64.18847656 244.46801758 C70.37487048 257.36419263 75.8457812 270.32212149 78.8125 284.375 C79.01552734 285.26832031 79.21855469 286.16164063 79.42773438 287.08203125 C83.98840018 307.82327706 86.98358952 339.8469449 76 359 C74.82576715 360.20486429 73.62619262 361.38543815 72.40527344 362.54296875 C67.88535314 367.6176159 68.0577773 372.25441161 68.203125 378.8125 C68.19794861 379.93962402 68.19277222 381.06674805 68.18743896 382.22802734 C68.17559035 385.81958551 68.20991935 389.4086775 68.25 393 C68.40652575 422.49507092 66.10870917 449.20601305 44.875 471.5625 C44.10929687 472.30628906 43.34359375 473.05007813 42.5546875 473.81640625 C40.68907757 475.93386124 40.68907757 475.93386124 41.2578125 478.77734375 C41.50273438 479.51082031 41.74765625 480.24429687 42 481 C42.94875 481.2475 43.8975 481.495 44.875 481.75 C53.35428114 484.22169329 62.23764764 486.98526948 67.16796875 494.8671875 C68.15450345 497.39605109 68.30036518 499.41489038 68.3125 502.125 C68.32925781 502.99382812 68.34601563 503.86265625 68.36328125 504.7578125 C68.18345703 505.86769531 68.18345703 505.86769531 68 507 C64.58640342 509.27573105 63.34992344 509.25659862 59.33862305 509.2746582 C58.17699142 509.28419022 57.0153598 509.29372223 55.81852722 509.30354309 C54.56228043 509.30263168 53.30603363 509.30172028 52.01171875 509.30078125 C50.0750811 509.30720894 50.0750811 509.30720894 48.09931946 509.31376648 C45.36475523 509.32122813 42.6303201 509.32093877 39.89575195 509.31567383 C36.40205656 509.30989192 32.90889352 509.32677869 29.41528606 509.3500185 C26.07240863 509.3683555 22.72964614 509.36456913 19.38671875 509.36328125 C18.13654465 509.372491 16.88637054 509.38170074 15.59831238 509.39118958 C4.62349521 509.33281665 4.62349521 509.33281665 0 506 C-4.97052849 499.25024824 -7.01412429 490.75735864 -9.64550781 482.88012695 C-10.27441993 481.00651282 -10.91828913 479.13794039 -11.5625 477.26953125 C-11.93503906 476.16198486 -12.30757812 475.05443848 -12.69140625 473.91333008 C-14.07165799 470.84046738 -15.40950208 469.12779582 -18 467 C-22.5802378 466.04011518 -26.91979185 466.63313686 -31.3125 468.125 C-35.58954585 471.10898547 -38.59792878 473.9797771 -39.63671875 479.19921875 C-39.75660156 480.12347656 -39.87648438 481.04773438 -40 482 C-38.92621094 482.35191406 -37.85242188 482.70382812 -36.74609375 483.06640625 C-21.10689565 488.41091466 -21.10689565 488.41091466 -17 495 C-15.66515252 499.05308235 -15.73113445 502.76536751 -16 507 C-17.1378479 508.72183228 -17.1378479 508.72183228 -19 510 C-21.71884155 510.38095093 -21.71884155 510.38095093 -25.04443359 510.38818359 C-26.28937592 510.39764008 -27.53431824 510.40709656 -28.81698608 510.4168396 C-30.17747312 510.41146872 -31.53795725 510.40531547 -32.8984375 510.3984375 C-34.29464876 510.40045884 -35.690859 510.40337079 -37.08706665 510.40713501 C-40.01420131 510.41155849 -42.94106134 510.40512885 -45.86816406 510.39111328 C-49.61307939 510.37405263 -53.35734821 510.38384195 -57.10223961 510.40183067 C-59.98652983 510.41269518 -62.870668 510.4092095 -65.75496292 510.4014473 C-67.13521018 510.39945099 -68.51547141 510.40188453 -69.89570236 510.40888596 C-71.82939119 510.41653985 -73.76312859 510.40279743 -75.69677734 510.38818359 C-76.7958139 510.38579681 -77.89485046 510.38341003 -79.02719116 510.38095093 C-83.11941843 509.856552 -85.81681009 508.32588618 -88.5546875 505.2578125 C-94.11966762 496.26822924 -96.89512017 486.03477217 -100 476 C-103.61379559 476.76404638 -104.83859693 477.62694229 -107.125 480.5625 C-119.11080668 494.7782242 -135.53560656 502.04974779 -153 507 C-154.14210938 507.34160156 -155.28421875 507.68320312 -156.4609375 508.03515625 C-174.7677945 512.62253883 -201.41473707 513.58210877 -218.39453125 504.10546875 C-221.8652523 501.30079312 -221.8652523 501.30079312 -222.25 498.0625 C-222.35828125 497.41410156 -222.4665625 496.76570313 -222.578125 496.09765625 C-221.81206373 493.31809609 -220.32185938 491.85922186 -218.06445312 490.12670898 C-213.76627347 487.78090729 -208.90473042 487.28544025 -204.125 486.5 C-180.38816235 482.15814679 -160.24198367 474.80907626 -145 455 C-138.58734104 445.55463951 -134.98321017 435.96103736 -132 425 C-131.6803125 424.01773437 -131.360625 423.03546875 -131.03125 422.0234375 C-127.42819679 410.18006815 -128.64806544 397.32770979 -129.5 385.125 C-132.29472621 344.86474123 -124.1623193 305.21317502 -112.75390625 266.75 C-109.75040289 256.56798881 -107.4730995 246.26301157 -105.3125 235.875 C-105.16193146 235.15992279 -105.01136292 234.44484558 -104.85623169 233.70809937 C-101.97778769 219.97357297 -99.63232576 206.20546657 -99.6875 192.125 C-99.67138672 191.279375 -99.65527344 190.43375 -99.63867188 189.5625 C-99.63097329 179.49275128 -102.47520019 170.73504493 -109 163 C-113.45945399 158.56709038 -118.11863065 154.42984071 -123.125 150.625 C-132.53698212 142.03145111 -139.1204017 130.69213287 -141 118 C-141.02430521 115.66670025 -141.04489922 113.33335996 -141.0625 111 C-141.22105949 106.16162432 -141.22105949 106.16162432 -143.6328125 102.22265625 C-145.67994066 101.03061769 -145.67994066 101.03061769 -147.87109375 100.05078125 C-154.42786238 96.81450462 -157.67381277 89.57665501 -160 83 C-162.40888841 73.96666845 -161.85503863 63.52999219 -158 55 C-153.30635593 47.32562219 -146.91683084 40.20015617 -138.12109375 37.40234375 C-131.71753113 36.18767165 -125.00687094 36.40243419 -119 39 C-118.73574219 38.41863281 -118.47148437 37.83726562 -118.19921875 37.23828125 C-116.09965281 33.31954742 -112.98936856 30.26001098 -110 27 C-109.24589844 26.12988281 -109.24589844 26.12988281 -108.4765625 25.2421875 C-96.61301354 12.29465945 -77.66747764 4.23052311 -61 0 C-59.87207031 -0.2990625 -58.74414062 -0.598125 -57.58203125 -0.90625 C-38.85344863 -5.16902539 -18.65087164 -4.20328868 0 0 Z " fill="#FEFDFE" transform="translate(485,191)"/>
<path d="M0 0 C1.23073242 -0.02416992 1.23073242 -0.02416992 2.48632812 -0.04882812 C7.92821802 -0.05317121 11.77174021 0.67294589 16.5625 3.3125 C19.05628207 7.05317311 18.76424915 8.73223865 18.1640625 13.03125 C16.83900213 18.05615424 13.50693502 20.72445555 9.25 23.375 C6.31525191 25.03423439 6.31525191 25.03423439 6 27.9375 C6.36252845 30.6716054 6.36252845 30.6716054 9.5625 32.3125 C16.80054727 33.30369756 21.57913382 32.34211396 27.5625 28.3125 C29.8125 27.375 29.8125 27.375 31.5625 27.3125 C33.375 28.3125 33.375 28.3125 34.5625 30.3125 C34.625 33.6875 34.625 33.6875 33.5625 37.3125 C29.13443686 41.84120094 25.21928009 44.1453891 18.8984375 44.54296875 C17.59132813 44.52878906 16.28421875 44.51460938 14.9375 44.5 C13.62523437 44.49355469 12.31296875 44.48710937 10.9609375 44.48046875 C7.5625 44.3125 7.5625 44.3125 4.5625 43.3125 C2.87704276 43.21962229 1.188007 43.18252796 -0.5 43.1875 C-1.37785156 43.18492187 -2.25570312 43.18234375 -3.16015625 43.1796875 C-5.46948266 43.16416576 -5.46948266 43.16416576 -7.4375 44.3125 C-17.78376407 45.15064357 -25.25656177 44.33037046 -33.5 37.9375 C-35.4375 35.3125 -35.4375 35.3125 -35.9375 32.125 C-35.7725 31.196875 -35.6075 30.26875 -35.4375 29.3125 C-32.4375 27.3125 -32.4375 27.3125 -30.6875 27.4375 C-28.4375 28.3125 -28.4375 28.3125 -25.375 30.375 C-20.69129873 33.17912484 -15.73344833 32.82691536 -10.4375 32.3125 C-9.4475 31.9825 -8.4575 31.6525 -7.4375 31.3125 C-6.76583293 28.56946104 -6.76583293 28.56946104 -7.4375 25.3125 C-9.29727274 23.54376509 -11.23925067 22.19443126 -13.39453125 20.8046875 C-16.2132263 18.74590832 -17.98327493 16.68061502 -19.08984375 13.34765625 C-19.63106918 9.60356256 -19.73255281 7.85539717 -17.875 4.4375 C-12.61708323 -0.14632487 -6.63150997 -0.02592459 0 0 Z " fill="#2B2158" transform="translate(455.4375,288.6875)"/>
<path d="M0 0 C4.35854989 2.81617572 8.09004067 6.088676 10 11 C10.78590613 16.61361521 10.24234268 21.24456407 7 26 C4.2348942 29.10231382 2.67957476 30.68593318 -1.40234375 31.44921875 C-5.61708535 31.63301951 -8.49415989 31.22481783 -12.375 29.5 C-16.66859825 25.41085881 -18.62451467 21.33635316 -19.5625 15.5 C-18.59274436 9.46596493 -15.70537014 5.51588457 -11.1875 1.5 C-7.29825764 -0.3302317 -4.15355356 -1.17012423 0 0 Z " fill="#292157" transform="translate(504,255)"/>
<path d="M0 0 C5.00752391 1.35110257 8.89159995 5.24877581 11.515625 9.625 C13.14737677 13.70039955 12.99253225 17.75649416 11.5234375 21.81640625 C9.86576622 25.26512466 8.24843233 28.10655946 5.31640625 30.625 C0.36303264 32.27612454 -4.64752995 32.48467138 -9.49609375 30.4375 C-14.65698699 26.16133131 -16.38404319 22.80023593 -16.99609375 16.3125 C-16.48900644 10.3288697 -13.90945912 6.96489936 -9.99609375 2.6875 C-6.34084024 0.41158744 -4.23976511 -0.22956427 0 0 Z " fill="#292058" transform="translate(412.68359375,254.375)"/>
<path d="M0 0 C3.05191378 0.17439507 3.81258515 0.81258515 6 3 C6 7.6449831 5.4966016 9.4808256 2.25 12.875 C-0.72453205 14.81988634 -2.51297294 15.69232114 -6 16 C-5.67 15.34 -5.34 14.68 -5 14 C-4.34 14 -3.68 14 -3 14 C-3 13.34 -3 12.68 -3 12 C-3.66 12 -4.32 12 -5 12 C-4.67 10.35 -4.34 8.7 -4 7 C-4.56203125 7.17402344 -5.1240625 7.34804688 -5.703125 7.52734375 C-8.24556755 8.05053346 -10.18452337 7.90204838 -12.75 7.5625 C-13.94882812 7.40974609 -13.94882812 7.40974609 -15.171875 7.25390625 C-15.77515625 7.17011719 -16.3784375 7.08632813 -17 7 C-17 6.67 -17 6.34 -17 6 C-15.78763672 5.85304688 -15.78763672 5.85304688 -14.55078125 5.703125 C-8.4670558 4.85184375 -4.65642047 4.21988105 0 0 Z " fill="#332B57" transform="translate(484,316)"/>
<path d="M0 0 C1.24546405 2.49092811 0.7767578 3.41080733 0 6 C0.66 6 1.32 6 2 6 C2.02689216 7.47906892 2.04634621 8.95827483 2.0625 10.4375 C2.07410156 11.26121094 2.08570313 12.08492187 2.09765625 12.93359375 C2 15 2 15 1 16 C2.65 16.33 4.3 16.66 6 17 C6 17.66 6 18.32 6 19 C4.06043186 18.744398 2.12334011 18.46995354 0.1875 18.1875 C-0.89144531 18.03667969 -1.97039063 17.88585937 -3.08203125 17.73046875 C-7.39808303 16.65001134 -7.39808303 16.65001134 -9 14 C-8.89116294 9.56670384 -6.89142253 7.32897317 -3.9375 4.1875 C-3.20402344 3.39730469 -2.47054687 2.60710938 -1.71484375 1.79296875 C-1.14894531 1.20128906 -0.58304688 0.60960937 0 0 Z " fill="#302959" transform="translate(534,657)"/>
<path d="M0 0 C2.32544353 0.0789996 4.6485709 0.22713669 6.96875 0.40234375 C15.8089653 1.02648452 24.64233961 1.32099913 33.5 1.5625 C35.01693415 1.60587347 36.5338613 1.64949231 38.05078125 1.69335938 C41.70044509 1.79838366 45.35019047 1.90015036 49 2 C49 2.33 49 2.66 49 3 C31.18 3 13.36 3 -5 3 C-3.68 2.34 -2.36 1.68 -1 1 C-0.67 0.67 -0.34 0.34 0 0 Z " fill="#F7F3FE" transform="translate(496,697)"/>
<path d="M0 0 C-1.13979196 7.18068937 -3.32468307 12.37296461 -8 18 C-8.99 18.66 -9.98 19.32 -11 20 C-11 19.01 -11 18.02 -11 17 C-10.34 17 -9.68 17 -9 17 C-9 16.34 -9 15.68 -9 15 C-9.99 15 -10.98 15 -12 15 C-10.87548273 12.0280615 -9.77706209 9.66559313 -8 7 C-6.68 7.33 -5.36 7.66 -4 8 C-4 5.69 -4 3.38 -4 1 C-2 0 -2 0 0 0 Z " fill="#F3F2F5" transform="translate(565,537)"/>
<path d="M0 0 C0.33 0 0.66 0 1 0 C1.365438 4.50706865 1.365438 4.50706865 -0.22077942 6.64668274 C-2.51247307 8.38979914 -3.79417825 8.3635857 -6.6550293 8.34057617 C-7.59577805 8.34034958 -8.53652679 8.34012299 -9.50578308 8.33988953 C-11.02465874 8.31666374 -11.02465874 8.31666374 -12.57421875 8.29296875 C-13.61318802 8.28872391 -14.65215729 8.28447906 -15.72261047 8.28010559 C-19.04450276 8.26329849 -22.36579075 8.22564196 -25.6875 8.1875 C-27.93814229 8.17245582 -30.18879407 8.15876695 -32.43945312 8.14648438 C-37.95984197 8.11338836 -43.47987782 8.06316869 -49 8 C-49 7.67 -49 7.34 -49 7 C-48.44511902 6.99191315 -47.89023804 6.98382629 -47.31854248 6.97549438 C-41.54334593 6.88943744 -35.76849216 6.78993333 -29.99365234 6.68261719 C-27.83843747 6.64433398 -25.68315884 6.60947996 -23.52783203 6.578125 C-20.42978124 6.5324605 -17.33216909 6.47446788 -14.234375 6.4140625 C-12.78886261 6.39673569 -12.78886261 6.39673569 -11.31414795 6.37905884 C-10.41351624 6.35918915 -9.51288452 6.33931946 -8.58496094 6.31884766 C-7.39915436 6.29886215 -7.39915436 6.29886215 -6.18939209 6.2784729 C-3.76552254 5.97017637 -2.10892723 5.20628714 0 4 C0 2.68 0 1.36 0 0 Z " fill="#F7F2FE" transform="translate(468,693)"/>
<path d="M0 0 C0.33 0 0.66 0 1 0 C1 3.63 1 7.26 1 11 C0.01 11 -0.98 11 -2 11 C-1.67 12.98 -1.34 14.96 -1 17 C-6.2734375 20.22265625 -6.2734375 20.22265625 -8 21 C-8.66 20.67 -9.32 20.34 -10 20 C-9.41992188 19.34257812 -9.41992188 19.34257812 -8.828125 18.671875 C-4.12581752 12.94530253 -2.00637471 7.0813225 0 0 Z " fill="#32295C" transform="translate(585,269)"/>
<path d="M0 0 C0.33 0.66 0.66 1.32 1 2 C-0.2065625 2.9590625 -0.2065625 2.9590625 -1.4375 3.9375 C-3.2750504 5.40603502 -3.2750504 5.40603502 -5 7 C-4.01 7 -3.02 7 -2 7 C-2 7.66 -2 8.32 -2 9 C-3.6396875 9.2165625 -3.6396875 9.2165625 -5.3125 9.4375 C-8.93122987 9.88288104 -8.93122987 9.88288104 -12 11 C-12 10.34 -12 9.68 -12 9 C-12.66 8.67 -13.32 8.34 -14 8 C-12.41779413 7.03980636 -10.83418669 6.08192202 -9.25 5.125 C-7.92742187 4.32449219 -7.92742187 4.32449219 -6.578125 3.5078125 C-4.41725907 2.24403334 -2.25429605 1.08501165 0 0 Z " fill="#EBE9F0" transform="translate(402,199)"/>
<path d="M0 0 C0.33 0 0.66 0 1 0 C1.33 5.28 1.66 10.56 2 16 C2.66 15.67 3.32 15.34 4 15 C3.84660156 15.98097656 3.69320313 16.96195313 3.53515625 17.97265625 C2.94295181 22.11808732 2.67071718 26.25870695 2.4375 30.4375 C2.39431641 31.16904297 2.35113281 31.90058594 2.30664062 32.65429688 C2.20183179 34.43604715 2.10054479 36.21800402 2 38 C1.67 38 1.34 38 1 38 C-0.01726146 25.32056251 -0.11427673 12.71460452 0 0 Z " fill="#CAC4D9" transform="translate(355,546)"/>
<path d="M0 0 C2.125 0.375 2.125 0.375 4 1 C4.8125 3.1875 4.8125 3.1875 5 6 C2.5625 8.8125 2.5625 8.8125 0 11 C-2 9 -2 9 -2.25 5.5 C-2 2 -2 2 0 0 Z " fill="#2E2357" transform="translate(484,316)"/>
<path d="M0 0 C0.66 0 1.32 0 2 0 C3.3302664 9.97699803 3.09502917 19.95614824 3 30 C2.67 30 2.34 30 2 30 C0.64932025 19.93020011 -0.31860272 10.17758697 0 0 Z " fill="#373057" transform="translate(354,574)"/>
<path d="M0 0 C1.80030122 2.70045182 2.93377066 5.06677881 4.125 8.0625 C4.47820313 8.94035156 4.83140625 9.81820313 5.1953125 10.72265625 C6 13 6 13 6 15 C5.01 15.33 4.02 15.66 3 16 C1 15 1 15 -0.1875 12.5 C-1.21126193 8.08994862 -0.72732066 4.42289594 0 0 Z " fill="#EAE8EE" transform="translate(529,392)"/>
<path d="M0 0 C0.6875 1.625 0.6875 1.625 1 4 C0.06833174 6.03273074 -0.9349985 8.03384339 -2 10 C-2.33 11.32 -2.66 12.64 -3 14 C-9.93 13.505 -9.93 13.505 -17 13 C-17 12.67 -17 12.34 -17 12 C-16.25234375 11.91363281 -15.5046875 11.82726562 -14.734375 11.73828125 C-8.54652316 10.96305284 -8.54652316 10.96305284 -3.4375 7.6875 C-2.08746197 5.16351586 -0.92832903 2.70762633 0 0 Z " fill="#DFDCE5" transform="translate(424,274)"/>
<path d="M0 0 C0.33 0 0.66 0 1 0 C1.12117188 0.74765625 1.24234375 1.4953125 1.3671875 2.265625 C1.53476562 3.25046875 1.70234375 4.2353125 1.875 5.25 C2.03742188 6.22453125 2.19984375 7.1990625 2.3671875 8.203125 C2.94855848 10.77264117 3.70840265 12.72071056 5 15 C4.01 15.33 3.02 15.66 2 16 C1.54625 15.236875 1.0925 14.47375 0.625 13.6875 C-0.53824492 11.76367186 -1.7529415 9.87058776 -3 8 C-2.65358161 4.53581611 -1.96713413 2.95070119 0 0 Z " fill="#EFEEF2" transform="translate(395,267)"/>
<path d="M0 0 C3.93809611 3.76687454 3.93809611 3.76687454 4.09765625 6.9453125 C4.06510417 8.96354167 4.03255208 10.98177083 4 13 C3.38125 12.34 2.7625 11.68 2.125 11 C0.24362573 8.7715451 0.24362573 8.7715451 -2 9 C-1.814375 8.05125 -1.62875 7.1025 -1.4375 6.125 C-0.71313368 3.10131207 -0.71313368 3.10131207 -2 1 C-1.34 0.67 -0.68 0.34 0 0 Z " fill="#332C58" transform="translate(421,261)"/>
<path d="M0 0 C8.91 0 17.82 0 27 0 C26.67 0.99 26.34 1.98 26 3 C22.7 3 19.4 3 16 3 C16 2.34 16 1.68 16 1 C10.72 1 5.44 1 0 1 C0 0.67 0 0.34 0 0 Z " fill="#EFECF1" transform="translate(440,188)"/>
<path d="M0 0 C2.93803143 0.97934381 4.64171556 2.04831632 7 4 C7 4.33 7 4.66 7 5 C9.97 5.495 9.97 5.495 13 6 C13 6.33 13 6.66 13 7 C8.05 7 3.1 7 -2 7 C-1.34 4.69 -0.68 2.38 0 0 Z " fill="#352C5C" transform="translate(465,326)"/>
<path d="M0 0 C1.175625 1.2065625 1.175625 1.2065625 2.375 2.4375 C4.71982856 4.98690417 4.71982856 4.98690417 7 6 C6.67 6.99 6.34 7.98 6 9 C6.66 9.33 7.32 9.66 8 10 C6.68 10 5.36 10 4 10 C4 9.34 4 8.68 4 8 C2.02 8 0.04 8 -2 8 C-2.125 5.125 -2.125 5.125 -2 2 C-1.34 1.34 -0.68 0.68 0 0 Z " fill="#251C51" transform="translate(458,322)"/>
<path d="M0 0 C0.66 0 1.32 0 2 0 C2 0.66 2 1.32 2 2 C3.65 2 5.3 2 7 2 C3.28249221 6.20240011 -1.31660979 8.99782679 -6 12 C-6.33 10.68 -6.66 9.36 -7 8 C-6.34 7.67 -5.68 7.34 -5 7 C-4.01 7.33 -3.02 7.66 -2 8 C-2 7.34 -2 6.68 -2 6 C-1.34 6 -0.68 6 0 6 C-0.185625 5.38125 -0.37125 4.7625 -0.5625 4.125 C-1 2 -1 2 0 0 Z " fill="#302855" transform="translate(385,202)"/>
<path d="M0 0 C-3.50575238 2.01078066 -6.99930785 2.79280998 -10.9375 3.625 C-12.74541016 4.01558594 -12.74541016 4.01558594 -14.58984375 4.4140625 C-17.49407549 4.91307139 -20.06720235 5.12243178 -23 5 C-23 4.34 -23 3.68 -23 3 C-15.34385951 0.91196168 -7.95808587 -0.20405348 0 0 Z " fill="#352C57" transform="translate(298,674)"/>
<path d="M0 0 C4.875 4.625 4.875 4.625 6 8 C5.34 8 4.68 8 4 8 C3.67 8.66 3.34 9.32 3 10 C2.34 9.34 1.68 8.68 1 8 C0.34 8 -0.32 8 -1 8 C-1.66 7.01 -2.32 6.02 -3 5 C-2 2 -2 2 0 0 Z " fill="#F1EEF1" transform="translate(437,304)"/>
<path d="M0 0 C1 3 1 3 0 6 C-1.32 5.67 -2.64 5.34 -4 5 C-3.67 5.99 -3.34 6.98 -3 8 C-3.99 8 -4.98 8 -6 8 C-6 9.32 -6 10.64 -6 12 C-6.66 12 -7.32 12 -8 12 C-8 13.98 -8 15.96 -8 18 C-8.33 18 -8.66 18 -9 18 C-9.66183521 11.64638202 -7.95286122 7.97187077 -4 3 C-1.6875 1 -1.6875 1 0 0 Z " fill="#403963" transform="translate(494,256)"/>
<path d="M0 0 C3.85103301 0.53675903 5.31797587 2.11600923 7.75 5.0625 C8.36359375 5.79597656 8.9771875 6.52945313 9.609375 7.28515625 C10.06828125 7.85105469 10.5271875 8.41695312 11 9 C10.01 9.33 9.02 9.66 8 10 C6.68 8.35 5.36 6.7 4 5 C3.01 6.485 3.01 6.485 2 8 C1.34 7.67 0.68 7.34 0 7 C0 4.69 0 2.38 0 0 Z " fill="#ECEBF0" transform="translate(531,216)"/>
<path d="M0 0 C1.32 0.99 2.64 1.98 4 3 C-1.445 5.475 -1.445 5.475 -7 8 C-7.33 7.34 -7.66 6.68 -8 6 C-8.66 6 -9.32 6 -10 6 C-10 5.01 -10 4.02 -10 3 C-7.98177083 3.09765625 -5.96354167 3.1953125 -3.9453125 3.29296875 C-3.30335938 3.19628906 -2.66140625 3.09960938 -2 3 C-1.34 2.01 -0.68 1.02 0 0 Z " fill="#322956" transform="translate(314,664)"/>
<path d="M0 0 C0 1.98 0 3.96 0 6 C-1.32 6.33 -2.64 6.66 -4 7 C-4 6.34 -4 5.68 -4 5 C-5.65 4.67 -7.3 4.34 -9 4 C-9 3.34 -9 2.68 -9 2 C-2.25 0 -2.25 0 0 0 Z " fill="#31285E" transform="translate(341,695)"/>
<path d="M0 0 C0 0.66 0 1.32 0 2 C-0.66 2.66 -1.32 3.32 -2 4 C-5.2578125 3.9765625 -5.2578125 3.9765625 -9.125 3.625 C-11.04699219 3.45871094 -11.04699219 3.45871094 -13.0078125 3.2890625 C-14.48894531 3.14597656 -14.48894531 3.14597656 -16 3 C-16 2.67 -16 2.34 -16 2 C-13.71022755 1.47090114 -11.41810812 0.95194981 -9.125 0.4375 C-7.84882813 0.14746094 -6.57265625 -0.14257812 -5.2578125 -0.44140625 C-2 -1 -2 -1 0 0 Z M-10 4 C-7 5 -7 5 -7 5 Z " fill="#DFDCE8" transform="translate(300,675)"/>
<path d="M0 0 C0.20674944 5.78898419 -0.40837921 10.42932723 -2 16 C-4 14 -4 14 -4.046875 10.99609375 C-3.94890625 9.82175781 -3.8509375 8.64742188 -3.75 7.4375 C-3.66234375 6.26058594 -3.5746875 5.08367187 -3.484375 3.87109375 C-3.32453125 2.92363281 -3.1646875 1.97617187 -3 1 C-1 0 -1 0 0 0 Z " fill="#30285C" transform="translate(381,418)"/>
<path d="M0 0 C2 1 2 1 2.875 2.8125 C3 5 3 5 1.0625 7.25 C0.381875 7.8275 -0.29875 8.405 -1 9 C-2.32 7.68 -3.64 6.36 -5 5 C-3.35 3.35 -1.7 1.7 0 0 Z " fill="#2F265D" transform="translate(549,673)"/>
<path d="M0 0 C0.66 0.99 1.32 1.98 2 3 C1.67 3.66 1.34 4.32 1 5 C1.66 5.33 2.32 5.66 3 6 C3 6.66 3 7.32 3 8 C-0.94476647 8.80688405 -2.99998285 9.00000429 -7 8 C-4.69 5.36 -2.38 2.72 0 0 Z " fill="#332C5A" transform="translate(381,667)"/>
<path d="M0 0 C2.70108504 0.090916 5.36930311 0.23740766 8.0625 0.4375 C9.20041992 0.51581055 9.20041992 0.51581055 10.36132812 0.59570312 C12.24121722 0.72575835 14.12065685 0.86228038 16 1 C16 1.33 16 1.66 16 2 C5.605 2.495 5.605 2.495 -5 3 C-3.68 2.34 -2.36 1.68 -1 1 C-0.67 0.67 -0.34 0.34 0 0 Z " fill="#F3F1EF" transform="translate(496,697)"/>
<path d="M0 0 C1.8125 0.0625 1.8125 0.0625 4 1 C6.25 4.0625 6.25 4.0625 8 7 C6.1875 7.6875 6.1875 7.6875 4 8 C1.45137078 6.13754018 0.2748209 3.84383123 -1 1 C-0.67 0.67 -0.34 0.34 0 0 Z " fill="#302859" transform="translate(354,335)"/>
<path d="M0 0 C1.52519276 0.08937803 3.04681929 0.24537146 4.5625 0.4375 C5.80193359 0.59025391 5.80193359 0.59025391 7.06640625 0.74609375 C7.70449219 0.82988281 8.34257812 0.91367187 9 1 C6.53258609 3.64107354 4.42559084 4.79641403 1 6 C0.34 4.35 -0.32 2.7 -1 1 C-0.67 0.67 -0.34 0.34 0 0 Z " fill="#F1EEF4" transform="translate(353,683)"/>
<path d="M0 0 C2.31 1.98 4.62 3.96 7 6 C6.34 6.66 5.68 7.32 5 8 C4.401875 7.67 3.80375 7.34 3.1875 7 C0.94613529 5.79212012 0.94613529 5.79212012 -2 6 C-2 4.68 -2 3.36 -2 2 C-1.34 2 -0.68 2 0 2 C0 1.34 0 0.68 0 0 Z " fill="#322B5A" transform="translate(371,349)"/>
<path d="M0 0 C2.33944736 0.28730055 4.6739143 0.61936779 7 1 C7 2.32 7 3.64 7 5 C5.02 5.99 5.02 5.99 3 7 C1.68 5.02 0.36 3.04 -1 1 C-0.67 0.67 -0.34 0.34 0 0 Z " fill="#F3F1F6" transform="translate(353,328)"/>
<path d="M0 0 C3 2 3 2 4 4 C1.69 5.32 -0.62 6.64 -3 8 C-3.75 6.25 -3.75 6.25 -4 4 C-2.0625 1.75 -2.0625 1.75 0 0 Z " fill="#30265C" transform="translate(324,656)"/>
<path d="M0 0 C1.3921875 0.2784375 1.3921875 0.2784375 2.8125 0.5625 C3.534375 0.706875 4.25625 0.85125 5 1 C5.33 2.32 5.66 3.64 6 5 C5.01 5.33 4.02 5.66 3 6 C0.95436401 4.73779907 -1.04402816 3.39712274 -3 2 C-4.3191582 1.30570621 -5.64649406 0.62469505 -7 0 C-4.28877166 -1.35561417 -2.92020777 -0.67911809 0 0 Z " fill="#39315D" transform="translate(570,229)"/>
<path d="M0 0 C2.97 0 5.94 0 9 0 C8 2 8 2 6 3 C6.66 3 7.32 3 8 3 C7.67 4.32 7.34 5.64 7 7 C3.96799661 5.9893322 3.00121175 5.36506843 1 3 C0.67 2.01 0.34 1.02 0 0 Z " fill="#2C1F5B" transform="translate(466,324)"/>
<path d="M0 0 C0.99 0 1.98 0 3 0 C3 0.66 3 1.32 3 2 C3.99 2.33 4.98 2.66 6 3 C4.3545622 4.68762851 2.68711423 6.3540349 1 8 C0.67 8 0.34 8 0 8 C0 5.36 0 2.72 0 0 Z " fill="#F3EFF1" transform="translate(368,672)"/>
<path d="M0 0 C1.859375 0.16015625 1.859375 0.16015625 4 1 C5.265625 3.43359375 5.265625 3.43359375 6.25 6.4375 C6.75273437 7.92056641 6.75273437 7.92056641 7.265625 9.43359375 C8 12 8 12 8 14 C7.01 13.67 6.02 13.34 5 13 C3.81297828 10.09839134 3.06042022 7.33231122 2.5 4.25 C2.16937144 1.81145444 2.16937144 1.81145444 0 0 Z " fill="#403A62" transform="translate(382,666)"/>
<path d="M0 0 C-0.97566112 1.16959987 -1.955625 2.33561177 -2.9375 3.5 C-3.48277344 4.1496875 -4.02804687 4.799375 -4.58984375 5.46875 C-5.05519531 5.9740625 -5.52054688 6.479375 -6 7 C-6.33 7 -6.66 7 -7 7 C-7 4.36 -7 1.72 -7 -1 C-3.51418144 -2.2020064 -3.32007656 -2.21338437 0 0 Z " fill="#F2EDF4" transform="translate(535,657)"/>
<path d="M0 0 C2.02168235 4.0433647 2.35927761 6.32129345 2.625 10.75 C2.69976563 11.92046875 2.77453125 13.0909375 2.8515625 14.296875 C2.90054688 15.18890625 2.94953125 16.0809375 3 17 C2.01 17 1.02 17 0 17 C0 11.39 0 5.78 0 0 Z " fill="#DEDAE9" transform="translate(563,476)"/>
<path d="M0 0 C3 1 3 1 5 4 C4.625 7.6875 4.625 7.6875 4 11 C1.82145293 7.7321794 0.50239966 4.61941735 -1 1 C-0.67 0.67 -0.34 0.34 0 0 Z " fill="#30275C" transform="translate(539,412)"/>
<path d="M0 0 C0.99 0.66 1.98 1.32 3 2 C3 4 3 4 0.6875 6.625 C-2 9 -2 9 -5 9 C-3.35 6.03 -1.7 3.06 0 0 Z " fill="#EEEBF3" transform="translate(331,240)"/>
<path d="M0 0 C6.30719307 0.92065781 9.91921368 1.9977458 14 7 C12.68 7 11.36 7 10 7 C9.67 6.34 9.34 5.68 9 5 C8.01 5 7.02 5 6 5 C6 4.34 6 3.68 6 3 C5.38125 2.87625 4.7625 2.7525 4.125 2.625 C2 2 2 2 0 0 Z " fill="#EBE8F3" transform="translate(534,675)"/>
<path d="M0 0 C0 1.33333333 0 2.66666667 0 4 C0.33 4.99 0.66 5.98 1 7 C-1.31 7.66 -3.62 8.32 -6 9 C-6 6 -6 6 -4.6875 4.39453125 C-4.130625 3.87246094 -3.57375 3.35039063 -3 2.8125 C-2.443125 2.28269531 -1.88625 1.75289062 -1.3125 1.20703125 C-0.6628125 0.60955078 -0.6628125 0.60955078 0 0 Z " fill="#EEEAF4" transform="translate(335,652)"/>
<path d="M0 0 C1.9955516 3.99110319 2.19546065 5.69986566 2 10 C0.35 9.67 -1.3 9.34 -3 9 C-2.01 6.03 -1.02 3.06 0 0 Z " fill="#332C5B" transform="translate(546,636)"/>
<path d="M0 0 C2.86724686 0.57344937 3.8614515 0.8614515 6 3 C5.67 3.99 5.34 4.98 5 6 C3.35 5.67 1.7 5.34 0 5 C-0.33 4.01 -0.66 3.02 -1 2 C-0.67 1.34 -0.34 0.68 0 0 Z " fill="#241C52" transform="translate(422,317)"/>
<path d="M0 0 C0.66 0 1.32 0 2 0 C2.08086147 1.79093191 2.13912702 3.58289628 2.1875 5.375 C2.22230469 6.37273438 2.25710938 7.37046875 2.29296875 8.3984375 C2.19628906 9.25695312 2.09960938 10.11546875 2 11 C1.01 11.66 0.02 12.32 -1 13 C-0.67 8.71 -0.34 4.42 0 0 Z " fill="#352C54" transform="translate(553,688)"/>
<path d="M0 0 C0.33 0.99 0.66 1.98 1 3 C-0.9375 5.6875 -0.9375 5.6875 -3 8 C-3.433125 6.824375 -3.433125 6.824375 -3.875 5.625 C-4.84912254 2.90328368 -4.84912254 2.90328368 -7 1 C-4.50935112 0.31292445 -2.62113708 0 0 0 Z " fill="#EDECEC" transform="translate(390,664)"/>
<path d="M0 0 C1.5625 1.625 1.5625 1.625 3 4 C2.6875 7.25 2.6875 7.25 2 10 C1.34 9.01 0.68 8.02 0 7 C-0.66 7.66 -1.32 8.32 -2 9 C-2.25 3.375 -2.25 3.375 0 0 Z " fill="#ECECEE" transform="translate(548,617)"/>
<path d="M0 0 C0.66 0.33 1.32 0.66 2 1 C2 4.63 2 8.26 2 12 C1.67 11.34 1.34 10.68 1 10 C0.34 10 -0.32 10 -1 10 C-0.67 6.7 -0.34 3.4 0 0 Z " fill="#584E77" transform="translate(342,294)"/>
<path d="M0 0 C0.99 0.33 1.98 0.66 3 1 C-0.44615385 5.8 -0.44615385 5.8 -3.25 6.8125 C-4.11625 6.9053125 -4.11625 6.9053125 -5 7 C-5 6.34 -5 5.68 -5 5 C-6.32 4.34 -7.64 3.68 -9 3 C-7.88625 3.061875 -6.7725 3.12375 -5.625 3.1875 C-4.42875 3.125625 -3.2325 3.06375 -2 3 C-1.34 2.01 -0.68 1.02 0 0 Z " fill="#352F5F" transform="translate(419,279)"/>
<path d="M0 0 C0.33 0 0.66 0 1 0 C1 3.63 1 7.26 1 11 C0.01 11 -0.98 11 -2 11 C-2 11.66 -2 12.32 -2 13 C-2.66 12.67 -3.32 12.34 -4 12 C-2.68 8.04 -1.36 4.08 0 0 Z " fill="#423B5F" transform="translate(585,269)"/>
<path d="M0 0 C-1.12047806 3.36143418 -2.49707183 4.57528834 -5 7 C-5.33 7.66 -5.66 8.32 -6 9 C-6.66 8.67 -7.32 8.34 -8 8 C-8 6.68 -8 5.36 -8 4 C-2.88888889 0 -2.88888889 0 0 0 Z " fill="#F1EEF3" transform="translate(324,663)"/>
<path d="M0 0 C0.66 0 1.32 0 2 0 C3.28317892 3.84953676 3.06643637 6.94738135 3 11 C2.01 10.34 1.02 9.68 0 9 C-0.29296875 6.8359375 -0.29296875 6.8359375 -0.1875 4.375 C-0.16042969 3.55773437 -0.13335938 2.74046875 -0.10546875 1.8984375 C-0.05326172 0.95871094 -0.05326172 0.95871094 0 0 Z " fill="#EEEBF4" transform="translate(564,493)"/>
<path d="M0 0 C2.00720923 0.28674418 4.0085944 0.61866701 6 1 C5.34 2.32 4.68 3.64 4 5 C3.67 4.67 3.34 4.34 3 4 C2.34 4.66 1.68 5.32 1 6 C0.34 4.35 -0.32 2.7 -1 1 C-0.67 0.67 -0.34 0.34 0 0 Z " fill="#F2F1F3" transform="translate(482,688)"/>
<path d="M0 0 C0.33 0 0.66 0 1 0 C1.63019694 9.01531729 1.63019694 9.01531729 -1 13.125 C-1.66 13.74375 -2.32 14.3625 -3 15 C-2.35812082 9.86496656 -1.31727753 5.0056546 0 0 Z " fill="#D2CDE0" transform="translate(366,482)"/>
<path d="M0 0 C0 0.66 0 1.32 0 2 C-0.99 2 -1.98 2 -3 2 C-3 2.66 -3 3.32 -3 4 C-5.3125 4.6875 -5.3125 4.6875 -8 5 C-9.8125 3.625 -9.8125 3.625 -11 2 C-11 1.67 -11 1.34 -11 1 C-9.54182203 0.83197949 -8.0834516 0.66562857 -6.625 0.5 C-5.81289063 0.4071875 -5.00078125 0.314375 -4.1640625 0.21875 C-2 0 -2 0 0 0 Z " fill="#4B436E" transform="translate(447,321)"/>
<path d="M0 0 C1.51400391 0.01740234 1.51400391 0.01740234 3.05859375 0.03515625 C4.07050781 0.04417969 5.08242188 0.05320313 6.125 0.0625 C7.29869141 0.07990234 7.29869141 0.07990234 8.49609375 0.09765625 C8.49609375 0.75765625 8.49609375 1.41765625 8.49609375 2.09765625 C6.85640625 2.31421875 6.85640625 2.31421875 5.18359375 2.53515625 C1.56486388 2.98053729 1.56486388 2.98053729 -1.50390625 4.09765625 C-1.50390625 3.43765625 -1.50390625 2.77765625 -1.50390625 2.09765625 C-2.16390625 1.76765625 -2.82390625 1.43765625 -3.50390625 1.09765625 C-2.50390625 0.09765625 -2.50390625 0.09765625 0 0 Z " fill="#F7F4EF" transform="translate(391.50390625,205.90234375)"/>
<path d="M0 0 C0 0.66 0 1.32 0 2 C-0.99 2.495 -0.99 2.495 -2 3 C-2 4.32 -2 5.64 -2 7 C-3.98 7.99 -3.98 7.99 -6 9 C-6.25 6.75 -6.25 6.75 -6 4 C-2.75675676 0 -2.75675676 0 0 0 Z " fill="#DEDAE6" transform="translate(269,681)"/>
<path d="M0 0 C2.43055758 2.11693724 3.84507109 3.53521326 4.875 6.625 C4.936875 7.800625 4.936875 7.800625 5 9 C4.34 9.66 3.68 10.32 3 11 C1.68 7.7 0.36 4.4 -1 1 C-0.67 0.67 -0.34 0.34 0 0 Z " fill="#3C345D" transform="translate(552,440)"/>
<path d="M0 0 C2.66666667 1.33333333 5.33333333 2.66666667 8 4 C3.38 4 -1.24 4 -6 4 C-6 3.67 -6 3.34 -6 3 C-5.195625 2.87625 -4.39125 2.7525 -3.5625 2.625 C-2.716875 2.41875 -1.87125 2.2125 -1 2 C-0.67 1.34 -0.34 0.68 0 0 Z " fill="#423B62" transform="translate(440,329)"/>
<path d="M0 0 C0.66 0.66 1.32 1.32 2 2 C1.34 2 0.68 2 0 2 C-0.33 2.99 -0.66 3.98 -1 5 C-1.66 5 -2.32 5 -3 5 C-3.33 6.32 -3.66 7.64 -4 9 C-4.99 8.34 -5.98 7.68 -7 7 C-4.66666667 4.66666667 -2.33333333 2.33333333 0 0 Z " fill="#EBE9EF" transform="translate(339,232)"/>
<path d="M0 0 C0.33 1.32 0.66 2.64 1 4 C1.66 4 2.32 4 3 4 C2.74438677 6.3431213 2.40729228 8.67843403 2 11 C1.01 11.495 1.01 11.495 0 12 C0 8.04 0 4.08 0 0 Z " fill="#ECEAF4" transform="translate(357,588)"/>
<path d="M0 0 C0.66 0 1.32 0 2 0 C2.33 2.64 2.66 5.28 3 8 C1.68 8.33 0.36 8.66 -1 9 C-0.67 6.03 -0.34 3.06 0 0 Z " fill="#433C61" transform="translate(469,690)"/>
<path d="M0 0 C0.66 0.99 1.32 1.98 2 3 C-0.25 4.5625 -0.25 4.5625 -3 6 C-4.32 5.67 -5.64 5.34 -7 5 C-4.69 3.35 -2.38 1.7 0 0 Z " fill="#39315C" transform="translate(369,679)"/>
<path d="M0 0 C1.32 1.65 2.64 3.3 4 5 C3.34 5.66 2.68 6.32 2 7 C1.67 6.67 1.34 6.34 1 6 C0.34 6.66 -0.32 7.32 -1 8 C-1.04241723 5.66705225 -1.04092937 3.33297433 -1 1 C-0.67 0.67 -0.34 0.34 0 0 Z " fill="#F7F4EF" transform="translate(537,643)"/>
<path d="M0 0 C0.33 0 0.66 0 1 0 C1.33 2.64 1.66 5.28 2 8 C1.34 8 0.68 8 0 8 C-0.33 8.66 -0.66 9.32 -1 10 C-2.46726798 6.18510326 -1.43336419 3.70988378 0 0 Z " fill="#3E3663" transform="translate(549,627)"/>
<path d="M0 0 C-0.66 2.97 -1.32 5.94 -2 9 C-4 5 -4 5 -4 1 C-2 0 -2 0 0 0 Z " fill="#E8E5EF" transform="translate(565,537)"/>
<path d="M0 0 C0.99 1.32 1.98 2.64 3 4 C1.25 7.875 1.25 7.875 -1 9 C-0.67 6.03 -0.34 3.06 0 0 Z " fill="#EEEDF1" transform="translate(545,429)"/>
<path d="M0 0 C2.38672669 2.96283313 4.7353371 5.94270509 7 9 C6.01 9.495 6.01 9.495 5 10 C3.5 8.6875 3.5 8.6875 2 7 C2 6.01 2 5.02 2 4 C1.34 4 0.68 4 0 4 C0 2.68 0 1.36 0 0 Z " fill="#3C365B" transform="translate(328,281)"/>
<path d="M0 0 C0.33 0.99 0.66 1.98 1 3 C1.99 3.33 2.98 3.66 4 4 C4 4.66 4 5.32 4 6 C1.69 6 -0.62 6 -3 6 C-2.01 4.02 -1.02 2.04 0 0 Z " fill="#F0EDF1" transform="translate(347,634)"/>
<path d="M0 0 C1.00000429 4.00001715 0.80688405 6.05523353 0 10 C-0.99 10 -1.98 10 -3 10 C-2.01 6.7 -1.02 3.4 0 0 Z " fill="#EEEAF1" transform="translate(351,624)"/>
<path d="M0 0 C1.65 0 3.3 0 5 0 C5.33 1.32 5.66 2.64 6 4 C5.01 4.33 4.02 4.66 3 5 C3 4.34 3 3.68 3 3 C2.01 2.67 1.02 2.34 0 2 C0 1.34 0 0.68 0 0 Z " fill="#2F294E" transform="translate(464,290)"/>
<path d="M0 0 C2 2 2 2 2.125 4.625 C2.08375 5.40875 2.0425 6.1925 2 7 C0.02 5.35 -1.96 3.7 -4 2 C-2.68 1.34 -1.36 0.68 0 0 Z " fill="#3F365E" transform="translate(539,217)"/>
<path d="M0 0 C-0.33 2.31 -0.66 4.62 -1 7 C-1.66 6.67 -2.32 6.34 -3 6 C-3.625 3.4375 -3.625 3.4375 -4 1 C-2 0 -2 0 0 0 Z " fill="#F3F2F3" transform="translate(392,672)"/>
<path d="M0 0 C1.32 0 2.64 0 4 0 C3.46930939 3.82097239 2.50298434 6.06171403 0 9 C0 6.03 0 3.06 0 0 Z " fill="#3B345E" transform="translate(345,629)"/>
<path d="M0 0 C0.99 0.33 1.98 0.66 3 1 C3.33 1.99 3.66 2.98 4 4 C2.02 4.99 2.02 4.99 0 6 C-0.38218767 4.34385343 -0.71395102 2.67542976 -1 1 C-0.67 0.67 -0.34 0.34 0 0 Z " fill="#F0EDEB" transform="translate(536,344)"/>
<path d="M0 0 C1.60379341 -0.05416188 3.20811406 -0.09286638 4.8125 -0.125 C5.70582031 -0.14820313 6.59914063 -0.17140625 7.51953125 -0.1953125 C10 0 10 0 13 2 C8.87131737 3.37622754 5.73396516 2.83871141 1.84375 0.95703125 C1.2353125 0.64121094 0.626875 0.32539063 0 0 Z " fill="#E8E5F4" transform="translate(450,331)"/>
<path d="M0 0 C3.465 1.485 3.465 1.485 7 3 C4.35261084 4.4606285 3.10551666 5 0 5 C0 3.35 0 1.7 0 0 Z " fill="#EBE6F0" transform="translate(424,328)"/>
<path d="M0 0 C0.12375 0.61875 0.2475 1.2375 0.375 1.875 C0.87197356 4.19120832 0.87197356 4.19120832 3 6 C3 6.99 3 7.98 3 9 C1.68 8.34 0.36 7.68 -1 7 C-1.04254356 5.00045254 -1.04080783 2.99958364 -1 1 C-0.67 0.67 -0.34 0.34 0 0 Z " fill="#362F54" transform="translate(421,317)"/>
<path d="M0 0 C0.33 0 0.66 0 1 0 C1 2.64 1 5.28 1 8 C0.01 8.33 -0.98 8.66 -2 9 C-1.125 2.25 -1.125 2.25 0 0 Z " fill="#362D59" transform="translate(567,304)"/>
<path d="M0 0 C2.475 0.495 2.475 0.495 5 1 C5.33 2.32 5.66 3.64 6 5 C4.35 4.67 2.7 4.34 1 4 C0.67 2.68 0.34 1.36 0 0 Z " fill="#302953" transform="translate(402,281)"/>
<path d="M0 0 C0.99 0 1.98 0 3 0 C3 2.64 3 5.28 3 8 C1.35 6.35 -0.3 4.7 -2 3 C-1.34 2.67 -0.68 2.34 0 2 C0 1.34 0 0.68 0 0 Z " fill="#E9E5EB" transform="translate(421,256)"/>
<path d="M0 0 C1.4370809 -0.05422947 2.87475462 -0.09289723 4.3125 -0.125 C5.11300781 -0.14820313 5.91351562 -0.17140625 6.73828125 -0.1953125 C9 0 9 0 12 2 C7.28400182 2.92470553 4.32734391 3.22923777 0 1 C0 0.67 0 0.34 0 0 Z " fill="#E5E1F0" transform="translate(551,228)"/>
<path d="M0 0 C2.31 1.65 4.62 3.3 7 5 C6.34 5.66 5.68 6.32 5 7 C4.01 6.34 3.02 5.68 2 5 C1.34 4.67 0.68 4.34 0 4 C0.33 3.34 0.66 2.68 1 2 C0.34 1.67 -0.32 1.34 -1 1 C-0.67 0.67 -0.34 0.34 0 0 Z " fill="#E4E2F0" transform="translate(523,208)"/>
<path d="M0 0 C1.32 0 2.64 0 4 0 C5.75 2 5.75 2 7 4 C6.01 5.32 5.02 6.64 4 8 C3.71125 7.236875 3.4225 6.47375 3.125 5.6875 C2.03730987 2.84970692 2.03730987 2.84970692 0 0 Z " fill="#433A66" transform="translate(464,682)"/>
<path d="M0 0 C1.5625 1.8125 1.5625 1.8125 3 4 C2.67 4.99 2.34 5.98 2 7 C1.01 7.33 0.02 7.66 -1 8 C-0.67 5.36 -0.34 2.72 0 0 Z " fill="#DFDFE5" transform="translate(361,504)"/>
<path d="M0 0 C0.33 0 0.66 0 1 0 C0.67 3.63 0.34 7.26 0 11 C-2.1519437 7.77208445 -2.20086443 6.71599191 -2 3 C-1.34 3 -0.68 3 0 3 C0 2.01 0 1.02 0 0 Z " fill="#473D6A" transform="translate(383,405)"/>
<path d="M0 0 C2.475 0.99 2.475 0.99 5 2 C4.67 3.32 4.34 4.64 4 6 C2.35 4.35 0.7 2.7 -1 1 C-0.67 0.67 -0.34 0.34 0 0 Z " fill="#EBE9F4" transform="translate(369,345)"/>
<path d="M0 0 C0.99 0.33 1.98 0.66 3 1 C2.38125 1.2475 1.7625 1.495 1.125 1.75 C-1.35068687 3.20628639 -1.95125002 4.37812506 -3 7 C-3.33 7 -3.66 7 -4 7 C-4 5.35 -4 3.7 -4 2 C-2.68 2 -1.36 2 0 2 C0 1.34 0 0.68 0 0 Z " fill="#433D5D" transform="translate(336,232)"/>
<path d="M0 0 C0.33 0 0.66 0 1 0 C1.23053497 2.84326464 1.35903101 4.46145349 -0.25 6.875 C-2 8 -2 8 -4.1875 7.6875 C-4.785625 7.460625 -5.38375 7.23375 -6 7 C-2.25 4 -2.25 4 0 4 C0 2.68 0 1.36 0 0 Z " fill="#E8E4F3" transform="translate(468,693)"/>
<path d="M0 0 C0.33 0 0.66 0 1 0 C1.9765625 6.0546875 1.9765625 6.0546875 2 8 C1.34 8.66 0.68 9.32 0 10 C-0.74926071 6.33694766 -1.2380014 3.57644848 0 0 Z " fill="#E2E2ED" transform="translate(382,416)"/>
<path d="M0 0 C1.98 0 3.96 0 6 0 C6 1.32 6 2.64 6 4 C1.125 2.25 1.125 2.25 0 0 Z " fill="#FBF9F4" transform="translate(370,344)"/>
<path d="M0 0 C0.33 0 0.66 0 1 0 C1 2.31 1 4.62 1 7 C-0.32 7 -1.64 7 -3 7 C-1.125 2.25 -1.125 2.25 0 0 Z " fill="#23185D" transform="translate(567,321)"/>
<path d="M0 0 C-3.1749094 1.9078584 -5.10585211 2.1609041 -8.75 1.625 C-9.54921875 1.51414062 -10.3484375 1.40328125 -11.171875 1.2890625 C-11.77515625 1.19367188 -12.3784375 1.09828125 -13 1 C-13 0.67 -13 0.34 -13 0 C-11.58456585 -0.19658808 -10.16755969 -0.38187546 -8.75 -0.5625 C-7.96109375 -0.66691406 -7.1721875 -0.77132813 -6.359375 -0.87890625 C-3.99467126 -1.00027349 -2.2488963 -0.69633257 0 0 Z " fill="#5B567B" transform="translate(480,322)"/>
<path d="M0 0 C0 1.66666667 0 3.33333333 0 5 C-1.98 5.33 -3.96 5.66 -6 6 C-2.25 1.125 -2.25 1.125 0 0 Z " fill="#383058" transform="translate(405,256)"/>
<path d="M0 0 C1.65 0.33 3.3 0.66 5 1 C5 1.66 5 2.32 5 3 C3.35 3.66 1.7 4.32 0 5 C-0.33 4.34 -0.66 3.68 -1 3 C-0.34 3 0.32 3 1 3 C0.67 2.01 0.34 1.02 0 0 Z " fill="#302759" transform="translate(340,227)"/>
<path d="M0 0 C0.99 0.33 1.98 0.66 3 1 C3.6875 3.0625 3.6875 3.0625 4 5 C3.01 5 2.02 5 1 5 C-0.6875 3 -0.6875 3 -2 1 C-1.34 0.67 -0.68 0.34 0 0 Z " fill="#342B58" transform="translate(530,210)"/>
<path d="M0 0 C0 0.66 0 1.32 0 2 C-1.98 2.66 -3.96 3.32 -6 4 C-6.33 3.01 -6.66 2.02 -7 1 C-4 0 -4 0 0 0 Z " fill="#32285A" transform="translate(411,194)"/>
</svg>
